<svg width="242" height="80" viewBox="0 0 242 80" fill="none" xmlns="http://www.w3.org/2000/svg">
<g id="Logo">
<g id="Version=Horizontal, Background=Light, Swiss flag=No">
<g id="Vector">
<path d="M195.543 50.307C196.116 49.8515 196.688 49.396 197.284 48.9645C202.651 44.817 208.184 40.5258 208.184 34.2686C208.184 29.354 204.654 25.9258 199.622 25.9258C195.185 25.9258 190.415 28.8985 190.415 35.4673C190.415 35.779 190.439 36.1386 190.463 36.3543L194.088 34.9639C194.088 31.3678 196.76 29.4739 199.383 29.4739C201.935 29.4739 204.535 31.1041 204.535 34.7721C204.535 39.4949 199.741 43.2108 193.087 48.3172C192.133 49.0364 191.155 49.8036 190.129 50.6187L190.081 50.6666V54.1188H199.526H208.971V50.307H195.543Z" fill="#020617"/>
<path d="M105.532 38.0564L105.198 37.9365C102.217 36.7379 100.118 35.683 100.118 32.998C100.118 30.3609 102.217 28.9704 104.268 28.9704C105.937 28.9704 108.036 29.8574 108.871 31.7993L112.377 30.4328L112.329 30.3129C110.946 26.8607 107.321 25.3264 104.316 25.3264C100.404 25.3264 96.1827 27.8197 96.1827 33.2617C96.1827 38.5838 100.237 40.238 103.505 41.5805L103.91 41.7483C107.249 43.1388 109.42 44.2416 109.42 46.9746C109.42 49.8035 107.058 51.0741 104.721 51.0741C102.408 51.0741 99.641 49.8275 98.8301 46.3513L98.7824 46.2074L95.0617 47.6219C96.1827 51.9851 99.8795 54.766 104.554 54.766C106.915 54.766 109.086 54.0468 110.708 52.7283C112.544 51.2419 113.522 49.1322 113.522 46.615C113.522 41.2689 109.277 39.5667 105.532 38.0564Z" fill="#020617"/>
<path d="M144.837 33.1419C139.042 33.1419 134.844 37.6489 134.844 43.8581C134.844 50.0673 139.042 54.5743 144.837 54.5743C150.633 54.5743 154.831 50.0673 154.831 43.8581C154.855 37.6729 150.633 33.1419 144.837 33.1419ZM151.182 43.8821C151.182 48.6289 148.01 51.1221 144.885 51.1221C141.713 51.1221 138.517 48.6289 138.517 43.8821C138.517 39.7107 141.188 36.69 144.885 36.69C148.534 36.69 151.182 39.7107 151.182 43.8821Z" fill="#020617"/>
<path d="M170.167 45.4165C170.167 49.1803 167.424 51.2181 164.824 51.2181C162.844 51.2181 160.746 50.0434 160.746 46.735V33.6694H157.168V46.735C157.168 52.5366 160.913 54.5984 164.109 54.5984C166.684 54.5984 168.95 53.3517 170.143 51.338L170.834 54.1189H173.768V33.6694H170.19V45.4165H170.167Z" fill="#020617"/>
<path d="M183.093 27.8436L179.516 29.2341V33.6692H176.129V36.9536H179.516V48.1493C179.516 53.7351 182.688 54.5742 184.572 54.5742C185.407 54.5742 186.289 54.4304 187.219 54.1666L187.339 54.1427V50.5706L187.1 50.7144C186.552 51.074 185.908 51.2898 185.359 51.2898C183.928 51.2898 183.093 50.235 183.093 48.4369V36.9536H187.315V33.6692H183.093V27.8436Z" fill="#020617"/>
<path d="M225.547 43.5464V35.2515L221.874 36.6899V43.5464H213.646L223.687 26.3573H219.608L208.995 44.5053V47.2863H221.874V54.1188H225.547V47.2863H230.293V43.5464H225.547Z" fill="#020617"/>
<path d="M130.551 47.9096C129.502 49.8754 127.546 51.0741 125.352 51.0741C122.299 51.0741 119.222 48.8446 119.222 43.8341C119.222 40.3819 121.059 36.6899 125.113 36.6899C127.14 36.6899 128.929 37.7687 129.883 39.5428L133.294 38.2242L133.222 38.1044C131.791 35.0597 128.691 33.1658 125.089 33.1658C122.561 33.1658 120.224 34.1008 118.507 35.8269C116.575 37.7687 115.525 40.5497 115.525 43.882C115.525 51.2419 120.534 54.5982 125.161 54.5982C128.762 54.5982 131.958 52.6324 133.723 49.3001L133.795 49.1802L133.771 49.1562L130.551 47.9096Z" fill="#020617"/>
<path d="M32.9437 20.7783L10.933 16.3835L6.55551 58.3371L35.2116 67.5679L90.1152 55.7602L82.7314 10.6297L32.9437 20.7783Z" fill="#99FF00"/>
<path d="M59.5404 26.6327L62.9727 25.3131V37.4879C64.1437 34.7283 67.051 33.389 69.9179 33.389C75.6518 33.389 78.6802 38.259 78.6802 43.9811C78.6802 49.4192 75.9344 54.7762 69.7564 54.7762C67.051 54.7762 64.3859 53.721 63.0938 51.002L62.2862 54.4109H59.5404V26.6327ZM69.1507 36.6762C65.032 36.6762 62.9727 40.3287 62.9727 44.2652C62.9727 48.08 64.9109 51.5295 69.0296 51.5295C73.229 51.5295 75.1672 48.0394 75.1672 44.1435C75.1672 40.1664 73.1886 36.6762 69.1507 36.6762Z" fill="#020617"/>
<path d="M46.2405 33.389C52.5397 33.389 56.0931 38.2996 56.0931 44.1029C56.0931 49.9062 52.5397 54.7762 46.2405 54.7762C39.9413 54.7762 36.4283 49.9062 36.4283 44.1029C36.4283 38.2996 39.9413 33.389 46.2405 33.389ZM46.2405 36.7168C42.0411 36.7168 39.9413 40.1664 39.9413 44.1029C39.9413 47.9989 42.0411 51.4484 46.2405 51.4484C50.4803 51.4484 52.5801 47.9989 52.5801 44.1029C52.5801 40.1664 50.4803 36.7168 46.2405 36.7168Z" fill="#020617"/>
<path d="M33.0098 46.7408C33.0098 52.0166 29.5372 55.0603 24.7724 55.0603C20.4115 55.0603 17.0239 53.2447 16.3973 48.5567L19.9269 47.1872C20.3711 50.1903 22.1882 51.6107 24.6513 51.6107C27.6798 51.6107 29.3757 49.7033 29.3757 46.4567V29.209H19.725V25.9218H33.0098V46.7408Z" fill="#020617"/>
</g>
</g>
</g>
</svg>
